<svg xmlns="http://www.w3.org/2000/svg" width="125px" viewBox="0 0 105.19 105.49"><defs><style>.cls-1{fill:#c1d2d9;stroke:#000;stroke-miterlimit:10;}</style></defs><title>Asset 49</title><g id="Layer_2" data-name="Layer 2"><g id="Layer_2-2" data-name="Layer 2"><polygon class="cls-1" points="103.99 102.83 0.5 1.19 0.5 104.97 103.99 102.83"/><g id="Layer_3" data-name="Layer 3"><path d="M22.92,76.81H21.2V72.39h-1v4.4H18.5v-10h1.71V71h1V66.8h1.72Z"/><path d="M28.92,74.73a2,2,0,0,1-2.13,2.21,2,2,0,0,1-2.18-2.21V68.84a2,2,0,0,1,2.18-2.21,2,2,0,0,1,2.13,2.21Zm-1.71-6.22c0-.39-.22-.55-.43-.55s-.44.16-.44.55v6.55c0,.37.17.54.45.54s.42-.15.42-.53Z"/><path d="M36.31,76.81H34.64V72.13l-.74,4.68H32.84l-.78-4.68v4.68H30.63v-10h2l.79,5.89.94-5.89h2Z"/><path d="M41.61,76.79H38.1v-10h3.5v1.38H39.83V71H41.3v1.4H39.83v3.06h1.78Z"/></g></g></g></svg>