<svg xmlns="http://www.w3.org/2000/svg" width="73px" viewBox="0 0 62.7 166.08"><defs><style>.cls-1{fill:#fff57b;stroke:#000;stroke-miterlimit:10;}</style></defs><title>Asset 47</title><g id="Layer_2" data-name="Layer 2"><g id="Layer_2-2" data-name="Layer 2"><polygon class="cls-1" points="0.5 165.58 62.2 165.58 62.2 61.79 0.5 1.19 0.5 165.58"/><g id="Layer_3" data-name="Layer 3"><path d="M13.62,76.23C13.62,77.46,13,78,12,78s-1.44-.63-1.44-1.74a7.72,7.72,0,0,1,.08-1.08l1,.12a6.48,6.48,0,0,0-.07.85c0,.65.11.82.35.82s.34-.17.34-.64v-.21a2.76,2.76,0,0,0-.81-1.88,3.27,3.27,0,0,1-.91-2.29v-.12c0-1,.39-1.76,1.53-1.76s1.43.69,1.43,1.74a6.59,6.59,0,0,1-.07,1l-1-.12a4.3,4.3,0,0,0,.05-.72c0-.67-.1-.83-.31-.83s-.29.15-.29.6v.16a2.39,2.39,0,0,0,.64,1.49,4.54,4.54,0,0,1,1.1,2.75Z"/><path d="M17.84,71.25H16.79v6.64H15.46V71.25h-1V70.19h3.42Z"/><path d="M21.87,77.87H20.53l-.1-1.07h-.79l-.1,1.07H18.43l1-7.68h1.43ZM20.3,75.73l-.24-3.06-.31,3.06Z"/><path d="M25,77.89a1.4,1.4,0,0,1-.1-.46c0-.67,0-.92,0-1.41,0-1.15-.18-1.27-.34-1.27h-.19v3.14H23v-7.7H24.7c1.07,0,1.64.61,1.64,2,0,1.07-.09,1.64-.76,2,.58.37.64,1.27.64,1.76v.58a5,5,0,0,0,.13,1.37Zm-.48-6.64h-.18v2.43h.17c.3,0,.5-.24.5-1.27S24.84,71.25,24.55,71.25Z"/><path d="M30.49,71.25h-1v6.64H28.11V71.25h-1V70.19h3.42Z"/><path d="M34.4,77.87H31.7V70.19h2.69v1.06H33v2.13h1.13v1.08H33v2.35H34.4Z"/><path d="M39,76.26c0,1.22-.62,1.61-1.67,1.61H35.63V70.19h1.63c1.11,0,1.7.42,1.7,1.74Zm-1.33-4.47c0-.44-.13-.54-.41-.54H37v5.56h.24c.32,0,.43-.13.43-.49Z"/><path d="M45.28,77.87H43.94l-.1-1.07h-.79L43,77.87H41.84l1-7.68h1.43Zm-1.57-2.14-.24-3.06-.31,3.06Z"/><path d="M49.52,77.89h-1l-1-4v4h-1.1v-7.7h1.12l.85,3.41V70.19h1.1Z"/><path d="M7.19,89.87H5.85l-.1-1.07H5l-.1,1.07H3.75l1-7.68H6.17ZM5.62,87.73l-.24-3.06-.31,3.06Z"/><path d="M11.16,88.23c0,1.23-.64,1.76-1.61,1.76s-1.44-.63-1.44-1.74a7.72,7.72,0,0,1,.08-1.08l1,.12a6.48,6.48,0,0,0-.07.85c0,.65.11.82.35.82s.34-.17.34-.64v-.21A2.76,2.76,0,0,0,9,86.23a3.27,3.27,0,0,1-.91-2.29v-.12c0-1,.39-1.76,1.53-1.76s1.43.69,1.43,1.74a6.59,6.59,0,0,1-.07,1l-1-.12a4.3,4.3,0,0,0,0-.72c0-.67-.1-.83-.31-.83s-.29.15-.29.6v.16a2.39,2.39,0,0,0,.64,1.49,4.54,4.54,0,0,1,1.1,2.75Z"/><path d="M15.32,88.23c0,1.23-.64,1.76-1.61,1.76s-1.44-.63-1.44-1.74a7.72,7.72,0,0,1,.08-1.08l1,.12a6.48,6.48,0,0,0-.07.85c0,.65.11.82.35.82s.34-.17.34-.64v-.21a2.76,2.76,0,0,0-.81-1.88,3.27,3.27,0,0,1-.91-2.29v-.12c0-1,.39-1.76,1.53-1.76s1.43.69,1.43,1.74a6.59,6.59,0,0,1-.07,1l-1-.12a4.3,4.3,0,0,0,0-.72c0-.67-.1-.83-.31-.83s-.29.15-.29.6v.16a2.39,2.39,0,0,0,.64,1.49,4.54,4.54,0,0,1,1.1,2.75Z"/><path d="M17.87,89.89H16.54v-7.7h1.33Z"/><path d="M22.46,89.87H22.1l-.2-.33a1.47,1.47,0,0,1-1.25.45,1.37,1.37,0,0,1-1.48-1.54V83.77a1.52,1.52,0,0,1,1.63-1.71c.91,0,1.48.36,1.48,1.72a6.7,6.7,0,0,1-.07,1l-1-.08a4.87,4.87,0,0,0,.06-.76c0-.73-.16-.84-.38-.84s-.38.16-.38.51v5c0,.29.11.44.37.44s.32-.15.32-.44V86.19h1.27Z"/><path d="M26.84,89.89h-1l-1-4v4h-1.1v-7.7h1.12l.85,3.41V82.19h1.1Z"/><path d="M32.59,89.89H31.31v-3.6l-.57,3.6h-.82l-.6-3.6v3.6h-1.1v-7.7h1.54l.61,4.53.72-4.53h1.5Z"/><path d="M36.67,89.87H34V82.19h2.69v1.06H35.3v2.13h1.13v1.08H35.3v2.35h1.37Z"/><path d="M41,89.89H40l-1-4v4H37.9v-7.7H39l.85,3.41V82.19H41Z"/><path d="M45.6,83.25H44.55v6.64H43.22V83.25h-1V82.19H45.6Z"/><path d="M51.85,88.29A1.51,1.51,0,0,1,50.21,90a1.54,1.54,0,0,1-1.68-1.7V83.76a1.53,1.53,0,0,1,1.68-1.7,1.5,1.5,0,0,1,1.64,1.7ZM50.53,83.5c0-.3-.17-.42-.33-.42s-.34.12-.34.42v5c0,.29.13.42.35.42s.32-.12.32-.41Z"/><path d="M56.23,89.89h-1l-1-4v4h-1.1v-7.7h1.12l.85,3.41V82.19h1.1Z"/><path d="M26.51,95.25h-1v6.64H24.14V95.25h-1V94.19h3.41Z"/><path d="M29.06,101.89H27.73v-7.7h1.33Z"/><path d="M34.8,101.89H33.52v-3.6l-.57,3.6h-.81l-.6-3.6v3.6h-1.1v-7.7H32l.61,4.53.71-4.53h1.5Z"/><path d="M38.88,101.87H36.19V94.19h2.68v1.06H37.52v2.13h1.12v1.08H37.52v2.35h1.36Z"/></g></g></g></svg>