<svg xmlns="http://www.w3.org/2000/svg" width="100px" viewBox="0 0 83.61 151.23"><defs><style>.cls-1{fill:#fcb033;stroke:#000;stroke-miterlimit:10;}</style></defs><title>Asset 51</title><g id="Layer_2" data-name="Layer 2"><g id="Layer_2-2" data-name="Layer 2"><polygon class="cls-1" points="83.11 149.94 83.11 89.74 0.52 1.28 2.31 150.73 83.11 149.94"/><g id="Layer_3" data-name="Layer 3"><path d="M13.46,99.1a1.73,1.73,0,0,1-1.93-1.95V91.59a1.77,1.77,0,0,1,1.9-2c1.06,0,1.83.37,1.83,2a9.2,9.2,0,0,1-.1,1.26L14,92.78a6.48,6.48,0,0,0,.08-1c0-.87-.2-1-.49-1s-.42.12-.42.59v5.88c0,.42.11.61.47.61s.44-.18.44-1a7.3,7.3,0,0,0-.08-1l1.22-.09a8,8,0,0,1,.1,1.27C15.27,98.72,14.5,99.1,13.46,99.1Z"/><path d="M20.63,97.06a1.8,1.8,0,0,1-2,2,1.84,1.84,0,0,1-2-2V91.63a1.84,1.84,0,0,1,2-2,1.8,1.8,0,0,1,2,2Zm-1.58-5.74c0-.36-.2-.51-.4-.51s-.4.15-.4.51v6c0,.35.15.51.42.51s.38-.15.38-.49Z"/><path d="M25.89,99H24.71l-1.18-4.74V99H22.21V89.75h1.34l1,4.09V89.75h1.32Z"/><path d="M31.07,97c0,1.48-.76,2.11-1.93,2.11s-1.72-.75-1.72-2.08a9.11,9.11,0,0,1,.09-1.3l1.2.14a7.47,7.47,0,0,0-.08,1c0,.78.13,1,.42,1s.4-.21.4-.77v-.25a3.31,3.31,0,0,0-1-2.26,3.91,3.91,0,0,1-1.09-2.74V91.7c0-1.2.47-2.11,1.84-2.11s1.71.83,1.71,2.09a7.73,7.73,0,0,1-.08,1.14l-1.21-.15a5.81,5.81,0,0,0,.06-.86c0-.8-.12-1-.38-1S29,91,29,91.53v.2a2.88,2.88,0,0,0,.76,1.78,5.42,5.42,0,0,1,1.32,3.3Z"/><path d="M34.13,99H32.54V89.75h1.59Z"/><path d="M39.78,97c0,1.46-.74,1.93-2,1.93h-2V89.75h2c1.33,0,2,.5,2,2.08Zm-1.59-5.36c0-.53-.16-.65-.49-.65h-.31v6.67h.28c.39,0,.52-.16.52-.59Z"/><path d="M44.58,99H41.35V89.75h3.22V91H42.94v2.55H44.3v1.3H42.94v2.82h1.64Z"/><path d="M48.45,99a1.69,1.69,0,0,1-.12-.55c0-.8,0-1.1,0-1.69,0-1.38-.21-1.52-.4-1.52h-.23V99h-1.6V89.75h2c1.29,0,2,.73,2,2.42,0,1.28-.11,2-.91,2.36a2.55,2.55,0,0,1,.77,2.11v.7A5.93,5.93,0,0,0,50,99Zm-.58-8h-.21v2.91h.2c.36,0,.6-.28.6-1.52S48.22,91,47.87,91Z"/><path d="M55.37,99h-1.6l-.12-1.29H52.7L52.58,99H51.25l1.18-9.21h1.72Zm-1.88-2.57-.29-3.67-.37,3.67Z"/><path d="M59.84,91H58.58v8H57V91H55.73V89.75h4.11Z"/><path d="M64.53,99H61.29V89.75h3.23V91H62.89v2.55h1.35v1.3H62.89v2.82h1.64Z"/></g></g></g></svg>