<svg xmlns="http://www.w3.org/2000/svg" width="187px" viewBox="0 0 166 107.81"><defs><style>.cls-1{fill:#c1d2d9;stroke:#000;stroke-miterlimit:10;}</style></defs><title>Asset 43</title><g id="Layer_2" data-name="Layer 2"><g id="Layer_2-2" data-name="Layer 2"><polygon class="cls-1" points="143.74 0.5 0.5 0.5 0.5 107.31 163.96 107.31 82.23 64.7 143.74 0.5"/><g id="Layer_3" data-name="Layer 3"><path d="M16.55,20.75h-.47l-.26-.43a2,2,0,0,1-1.63.58,1.78,1.78,0,0,1-1.92-2V12.82a2,2,0,0,1,2.12-2.23c1.18,0,1.92.47,1.92,2.24a8.88,8.88,0,0,1-.09,1.27L14.91,14A6.26,6.26,0,0,0,15,13c0-.95-.21-1.09-.5-1.09s-.49.21-.49.66V19c0,.38.14.57.48.57s.42-.19.42-.57V16h1.65Z"/><path d="M22,10.76l-1.46,6.13v3.88H18.78v-3.9l-1.45-6.11h1.82l.57,3.79.62-3.79Z"/><path d="M29.17,20.77H27.51V16.09l-.75,4.68H25.7l-.78-4.68v4.68H23.49v-10h2l.79,5.89.94-5.89h2Z"/><path d="M37.13,18.61c0,1.6-.84,2.29-2.1,2.29s-1.87-.82-1.87-2.26a10.27,10.27,0,0,1,.1-1.4l1.3.15a8.87,8.87,0,0,0-.09,1.11c0,.84.15,1.06.46,1.06s.44-.22.44-.83v-.27a3.63,3.63,0,0,0-1-2.45,4.22,4.22,0,0,1-1.19-3v-.16c0-1.3.51-2.29,2-2.29s1.86.9,1.86,2.27a8.85,8.85,0,0,1-.09,1.23l-1.31-.16a5.44,5.44,0,0,0,.06-.93c0-.87-.13-1.08-.4-1.08s-.38.19-.38.78v.21a3.07,3.07,0,0,0,.84,1.93,6,6,0,0,1,1.43,3.58Z"/><path d="M42.92,18.69a2,2,0,0,1-2.13,2.21,2,2,0,0,1-2.18-2.21V12.8a2,2,0,0,1,2.18-2.21,2,2,0,0,1,2.13,2.21Zm-1.71-6.22c0-.39-.22-.55-.43-.55s-.44.16-.44.55V19c0,.37.17.54.45.54s.42-.15.42-.53Z"/><path d="M50.31,20.77H48.64V16.09l-.74,4.68H46.84l-.78-4.68v4.68H44.63v-10h2l.79,5.89.94-5.89h2Z"/><path d="M55.61,20.75H52.1v-10h3.5v1.38H53.83v2.77H55.3v1.4H53.83v3.06h1.78Z"/><path d="M61.44,12.14H60.07v8.63H58.34V12.14H57V10.76h4.45Z"/><path d="M64.74,20.77H63v-10h1.73Z"/><path d="M72.21,20.77H70.55V16.09l-.74,4.68H68.74L68,16.09v4.68H66.53v-10h2l.8,5.89.93-5.89h1.95Z"/><path d="M77.52,20.75H74v-10H77.5v1.38H75.74v2.77H77.2v1.4H75.74v3.06h1.78Z"/><path d="M82.94,18.61c0,1.6-.83,2.29-2.1,2.29S79,20.08,79,18.64a8.73,8.73,0,0,1,.11-1.4l1.3.15a7.31,7.31,0,0,0-.09,1.11c0,.84.14,1.06.45,1.06s.44-.22.44-.83v-.27A3.63,3.63,0,0,0,80.13,16,4.21,4.21,0,0,1,79,13v-.16c0-1.3.5-2.29,2-2.29s1.85.9,1.85,2.27a7.54,7.54,0,0,1-.09,1.23l-1.31-.16a5.24,5.24,0,0,0,.07-.93c0-.87-.13-1.08-.41-1.08s-.37.19-.37.78v.21a3.1,3.1,0,0,0,.83,1.93,5.93,5.93,0,0,1,1.43,3.58Z"/><path d="M86.3,20.69a1.83,1.83,0,0,1-1.1,1.54l-.46-.42a1.32,1.32,0,0,0,.78-1.06h-.84v-1.6H86.3Z"/><path d="M14.49,32.77H14.1v3.58H12.37v-10h2.06c1.48,0,2.21.8,2.21,3.16S15.72,32.77,14.49,32.77Zm-.2-5H14.1v3.65h.2c.39,0,.65-.39.65-1.88S14.71,27.74,14.29,27.74Z"/><path d="M22,36.35H20.25L20.12,35h-1L19,36.35H17.52l1.29-10h1.86Zm-2-2.79-.31-4-.4,4Z"/><path d="M25.24,36.37H23.51v-10h1.73Z"/><path d="M31,36.37H29.76l-1.29-5.13v5.13H27v-10h1.45L29.6,30.8V26.36H31Z"/><path d="M37.05,27.74H35.68v8.63H34V27.74H32.6V26.36h4.45Z"/><path d="M40.35,36.37H38.62v-10h1.73Z"/><path d="M46.13,36.37H44.86l-1.29-5.13v5.13H42.14v-10H43.6l1.1,4.44V26.36h1.43Z"/><path d="M52.1,36.35h-.47l-.26-.43a1.92,1.92,0,0,1-1.62.58,1.78,1.78,0,0,1-1.93-2V28.42a2,2,0,0,1,2.12-2.23c1.19,0,1.93.47,1.93,2.24a8.88,8.88,0,0,1-.09,1.27l-1.32-.1a6.26,6.26,0,0,0,.08-1c0-.95-.21-1.09-.49-1.09s-.5.21-.5.66v6.45c0,.38.15.57.49.57s.41-.19.41-.57V31.56H52.1Z"/><path d="M55.59,36.29a1.85,1.85,0,0,1-1.11,1.54L54,37.41a1.36,1.36,0,0,0,.78-1.06H54v-1.6h1.63Z"/><path d="M62.46,36.37a1.94,1.94,0,0,1-.13-.6c0-.87,0-1.19,0-1.83,0-1.49-.23-1.65-.44-1.65H61.6v4.08H59.88v-10H62c1.39,0,2.14.8,2.14,2.63,0,1.39-.12,2.13-1,2.56.75.48.83,1.65.83,2.29v.75a6.33,6.33,0,0,0,.17,1.78Zm-.62-8.63H61.6V30.9h.23c.39,0,.65-.31.65-1.65S62.22,27.74,61.84,27.74Z"/><path d="M69.29,36.35H65.78v-10h3.49v1.38H67.51v2.77H69v1.4H67.51V35h1.78Z"/><path d="M75.07,36.35H73.33L73.2,35h-1L72,36.35H70.6l1.29-10h1.86Zm-2-2.79-.31-4-.4,4Z"/><path d="M80.92,34.25c0,1.59-.8,2.1-2.17,2.1H76.59v-10h2.12c1.45,0,2.21.55,2.21,2.26Zm-1.73-5.81c0-.57-.17-.7-.53-.7h-.34V35h.31c.42,0,.56-.17.56-.64Z"/><path d="M84.34,36.37H82.61v-10h1.73Z"/><path d="M90.13,36.37H88.85l-1.29-5.13v5.13H86.13v-10h1.46L88.7,30.8V26.36h1.43Z"/><path d="M96.09,36.35h-.47l-.25-.43a2,2,0,0,1-1.63.58,1.78,1.78,0,0,1-1.92-2V28.42a2,2,0,0,1,2.11-2.23c1.19,0,1.93.47,1.93,2.24a8.88,8.88,0,0,1-.09,1.27l-1.32-.1a6.26,6.26,0,0,0,.08-1c0-.95-.2-1.09-.49-1.09s-.5.21-.5.66v6.45c0,.38.15.57.49.57s.41-.19.41-.57V31.56h1.65Z"/></g></g></g></svg>