<svg xmlns="http://www.w3.org/2000/svg" width="280px" viewBox="0 0 257.67 57.71"><defs><style>.cls-1{fill:#fa8607;stroke:#000;stroke-miterlimit:10;}</style></defs><title>Asset 42</title><g id="Layer_2" data-name="Layer 2"><g id="Layer_2-2" data-name="Layer 2"><polygon class="cls-1" points="2.13 0.5 141.78 0.5 255.55 57.21 116 57.21 2.13 0.5"/><g id="Layer_3" data-name="Layer 3"><path d="M80.62,28.58c0,1.59-.8,2.09-2.17,2.09H76.29v-10h2.12c1.45,0,2.21.54,2.21,2.26ZM78.9,22.77c0-.57-.17-.7-.54-.7H78v7.22h.32c.41,0,.56-.16.56-.63Z"/><path d="M86.5,30.67H84.76l-.13-1.39h-1l-.13,1.39H82l1.28-10h1.86Zm-2-2.78-.31-4-.41,4Z"/><path d="M91.53,30.7H88v-10h1.73v8.59h1.78Z"/><path d="M96.67,30.7H93.16v-10h1.72v8.59h1.79Z"/><path d="M102.48,30.67h-1.75l-.13-1.39h-1l-.13,1.39H98l1.29-10h1.86Zm-2-2.78-.32-4-.4,4Z"/><path d="M107.64,28.54c0,1.6-.83,2.29-2.1,2.29s-1.87-.82-1.87-2.26a9,9,0,0,1,.11-1.41l1.3.16a7.29,7.29,0,0,0-.09,1.1c0,.85.14,1.07.45,1.07s.44-.22.44-.83v-.28a3.61,3.61,0,0,0-1-2.44,4.22,4.22,0,0,1-1.18-3v-.15c0-1.3.5-2.29,2-2.29s1.85.9,1.85,2.26A7.58,7.58,0,0,1,107.4,24l-1.31-.16a5.46,5.46,0,0,0,.07-.94c0-.87-.13-1.07-.41-1.07s-.37.19-.37.78v.2a3.1,3.1,0,0,0,.83,1.94,5.91,5.91,0,0,1,1.43,3.58Z"/><path d="M111,30.62a1.81,1.81,0,0,1-1.1,1.53l-.46-.41a1.33,1.33,0,0,0,.78-1.07h-.84v-1.6H111Z"/><path d="M119.29,30.7H118l-1.29-5.14V30.7h-1.43v-10h1.46l1.11,4.43V20.69h1.43Z"/><path d="M124.59,30.67h-3.51v-10h3.5v1.38h-1.77v2.77h1.47v1.4h-1.47v3.05h1.78Z"/><path d="M132.53,20.69l-1.21,10h-1.57l-.55-5.08-.55,5.08h-1.56l-1.17-10h1.74l.41,5.3.54-5.3h1.19l.56,5.42.43-5.42Z"/><path d="M140.7,20.69l-1.46,6.12V30.7h-1.73V26.8l-1.46-6.11h1.83l.57,3.78.62-3.78Z"/><path d="M146.43,28.62a2,2,0,0,1-2.13,2.21,2,2,0,0,1-2.19-2.21V22.73a2,2,0,0,1,2.19-2.21,2,2,0,0,1,2.13,2.21Zm-1.72-6.23c0-.39-.22-.54-.43-.54s-.44.15-.44.54v6.55c0,.38.17.55.46.55s.41-.16.41-.53Z"/><path d="M150.72,30.7a1.69,1.69,0,0,1-.13-.6c0-.87,0-1.2,0-1.83,0-1.5-.23-1.65-.44-1.65h-.25V30.7h-1.73v-10h2.16c1.39,0,2.13.79,2.13,2.62,0,1.4-.12,2.14-1,2.57.76.48.84,1.65.84,2.28v.76a6.89,6.89,0,0,0,.16,1.78Zm-.63-8.63h-.23v3.16h.22c.39,0,.65-.32.65-1.66S150.47,22.07,150.09,22.07Z"/><path d="M158.62,30.7h-1.79L156,26.6l-.25.65V30.7H154v-10h1.73v2.95l1.06-2.95h1.65l-1.38,3.64Z"/></g></g></g></svg>