<svg xmlns="http://www.w3.org/2000/svg" width= "250px" viewBox="0 0 208.77 152.6"><defs><style>.cls-1{fill:#c1d2d9;stroke:#000;stroke-miterlimit:10;}</style></defs><title>Asset 53</title><g id="Layer_2" data-name="Layer 2"><g id="Layer_2-2" data-name="Layer 2"><path class="cls-1" d="M208.76,151.82S82.23,154.54,83.1,1.3L.5,91.9v60.2Z"/><g id="Layer_3" data-name="Layer 3"><path d="M34.38,101.19a1.69,1.69,0,0,1-.13-.6c0-.87,0-1.19,0-1.83,0-1.5-.23-1.65-.44-1.65h-.25v4.08H31.79v-10H34c1.39,0,2.13.79,2.13,2.63,0,1.39-.11,2.13-1,2.56.75.48.83,1.65.83,2.28v.76a6.38,6.38,0,0,0,.17,1.78Zm-.62-8.63h-.24v3.16h.22c.39,0,.65-.32.65-1.65S34.13,92.56,33.76,92.56Z"/><path d="M41.91,99.11a2,2,0,0,1-2.13,2.21,2,2,0,0,1-2.19-2.21V93.22A2,2,0,0,1,39.78,91a2,2,0,0,1,2.13,2.21Zm-1.72-6.23c0-.39-.22-.54-.43-.54s-.44.15-.44.54v6.55c0,.38.17.55.46.55s.41-.16.41-.53Z"/><path d="M47.8,101.16H46.05l-.13-1.39h-1l-.13,1.39H43.32l1.29-10h1.86Zm-2-2.78-.32-4-.4,4Z"/><path d="M53.65,99.07c0,1.59-.81,2.09-2.17,2.09H49.32v-10h2.12c1.44,0,2.21.55,2.21,2.26Zm-1.73-5.81c0-.57-.17-.7-.54-.7h-.33v7.23h.31c.41,0,.56-.17.56-.64Z"/><path d="M61.9,92.56H60.54v8.63H58.81V92.56H57.46V91.18H61.9Z"/><path d="M66.06,101.19a1.69,1.69,0,0,1-.13-.6c0-.87,0-1.19,0-1.83,0-1.5-.23-1.65-.44-1.65H65.2v4.08H63.47v-10h2.16c1.39,0,2.13.79,2.13,2.63,0,1.39-.11,2.13-1,2.56.75.48.83,1.65.83,2.28v.76a6.38,6.38,0,0,0,.17,1.78Zm-.62-8.63H65.2v3.16h.22c.39,0,.65-.32.65-1.65S65.81,92.56,65.44,92.56Z"/><path d="M71.11,101.16H69.38v-10h1.73Z"/><path d="M75,97.59h-.39v3.57H72.9v-10h2c1.49,0,2.21.79,2.21,3.16S76.24,97.59,75,97.59Zm-.21-5h-.18v3.65h.19c.39,0,.65-.39.65-1.88S75.24,92.56,74.81,92.56Z"/><path d="M82.55,99c0,1.6-.84,2.29-2.1,2.29s-1.87-.82-1.87-2.26a10.56,10.56,0,0,1,.1-1.41l1.3.16a8.87,8.87,0,0,0-.09,1.1c0,.85.15,1.07.46,1.07s.44-.22.44-.83v-.27a3.61,3.61,0,0,0-1.05-2.45,4.23,4.23,0,0,1-1.19-3V93.3c0-1.3.51-2.29,2-2.29s1.86.9,1.86,2.26a8.88,8.88,0,0,1-.09,1.24L81,94.35a5.52,5.52,0,0,0,.06-.93c0-.88-.13-1.08-.4-1.08s-.38.19-.38.78v.2a3.1,3.1,0,0,0,.83,1.94,5.92,5.92,0,0,1,1.44,3.58Z"/></g></g></g></svg>