<svg xmlns="http://www.w3.org/2000/svg" width="162px" viewBox="0 0 141.34 108.05"><defs><style>.cls-1{fill:#ffe469;}.cls-1,.cls-2{stroke:#000;stroke-miterlimit:10;}.cls-2{fill:#fecc51;}</style></defs><title>Asset 46</title><g id="Layer_2" data-name="Layer 2"><g id="Layer_2-2" data-name="Layer 2"><polygon class="cls-1" points="0.82 64.81 82.55 107.43 112.72 73.04 32.77 31.46 0.82 64.81"/><polygon class="cls-2" points="62.33 0.62 32.77 31.46 112.72 73.04 140.54 41.33 62.33 0.62"/><g id="Layer_3" data-name="Layer 3"><path d="M36.78,72.49c-1.31,0-1.81-.88-1.81-2.13,0-.52.06-.82.07-1.08l1.31.08a6.64,6.64,0,0,0-.05.89c0,.69.13.91.47.91s.48-.09.48-.93V68.08c0-1-.16-1.12-.44-1.12s-.53.12-.68.62H35l.27-5.3a12.4,12.4,0,0,0,1.6.1,13.51,13.51,0,0,0,1.77-.1c0,1.15-.27,1.4-1.42,1.4-.23,0-.44,0-.62,0l-.16,2.12a2.22,2.22,0,0,1,.79-.12c1.23,0,1.67,1.1,1.67,3.21C38.89,71.62,38.42,72.49,36.78,72.49Z"/><path d="M45.3,61.58,42.41,73.73H40.67l2.9-12.15Z"/><path d="M50.33,72.36H48.7V64.79H47.16V63.68a2.67,2.67,0,0,0,1.58-.47,2,2,0,0,0,.44-.86h1.15Z"/><path d="M57.39,61.58,54.5,73.73H52.76l2.9-12.15Z"/><path d="M62.81,67.07a23.3,23.3,0,0,1-1.35,2.39,4.25,4.25,0,0,0-.58,1.5h2.33v1.4h-4V72a5.5,5.5,0,0,1,.69-2.84c.3-.58.66-1.21,1.06-1.9a4.72,4.72,0,0,0,.73-2.13v-.53c0-.86-.16-1.13-.53-1.13s-.54.22-.54.95a6.38,6.38,0,0,0,.08.93l-1.3.12a8.08,8.08,0,0,1-.1-1.21c0-1.43.65-2.12,1.9-2.12,1.43,0,2.08.91,2.08,2.69A5.36,5.36,0,0,1,62.81,67.07Z"/><path d="M68.91,70.37c0,1.56-.82,2.12-2,2.12s-2.07-.6-2.07-2.2v-6a1.86,1.86,0,0,1,2.05-2.07,1.8,1.8,0,0,1,2,2Zm-1.62-6.25c0-.44-.11-.6-.39-.6s-.41.16-.41.62v6.35c0,.48.1.66.41.66s.39-.18.39-.64Z"/><path d="M74.65,70.37c0,1.56-.82,2.12-2,2.12s-2.07-.6-2.07-2.2v-6a1.86,1.86,0,0,1,2.06-2.07,1.8,1.8,0,0,1,2,2ZM73,64.12c0-.44-.12-.6-.39-.6s-.42.16-.42.62v6.35c0,.48.11.66.42.66S73,71,73,70.51Z"/><path d="M80.4,70.37c0,1.56-.82,2.12-2,2.12s-2.07-.6-2.07-2.2v-6a1.86,1.86,0,0,1,2-2.07,1.8,1.8,0,0,1,2,2Zm-1.62-6.25c0-.44-.11-.6-.39-.6s-.41.16-.41.62v6.35c0,.48.1.66.41.66s.39-.18.39-.64Z"/><path d="M66.38,39.2H64.64l-.13-1.4h-1l-.13,1.4H61.91l1.29-10h1.86Zm-2-2.79-.31-4-.4,4Z"/><path d="M71.92,37.26a1.93,1.93,0,0,1-2.13,2.09,1.9,1.9,0,0,1-2.12-2.08V29.21h1.72v8.23c0,.38.19.57.49.57s.39-.19.39-.58V29.21h1.65Z"/><path d="M77.48,37.06c0,1.6-.83,2.29-2.09,2.29s-1.87-.82-1.87-2.26a10.27,10.27,0,0,1,.1-1.4l1.3.15A8.87,8.87,0,0,0,74.83,37c0,.84.15,1.06.46,1.06s.44-.22.44-.83v-.27a3.63,3.63,0,0,0-1-2.45,4.22,4.22,0,0,1-1.19-3v-.16c0-1.3.51-2.29,2-2.29s1.86.9,1.86,2.26a8.88,8.88,0,0,1-.09,1.24l-1.31-.16a5.44,5.44,0,0,0,.06-.93c0-.87-.13-1.08-.4-1.08s-.38.19-.38.78v.21a3.1,3.1,0,0,0,.83,1.93,5.91,5.91,0,0,1,1.43,3.58Z"/><path d="M83,30.59H81.61v8.63H79.88V30.59H78.52V29.21H83Z"/><path d="M86.27,39.22H84.54v-10h1.73Z"/><path d="M92.06,39.22H90.78L89.5,34.09v5.13H88.07v-10h1.45l1.11,4.43V29.21h1.43Z"/></g></g></g></svg>