<svg xmlns="http://www.w3.org/2000/svg" width="130px" viewBox="0 0 115.07 124.12"><defs><style>.cls-1{fill:#fff57b;stroke:#000;stroke-miterlimit:10;}</style></defs><title>Asset 40</title><g id="Layer_2" data-name="Layer 2"><g id="Layer_2-2" data-name="Layer 2"><polygon class="cls-1" points="114.57 1.36 114.57 123.31 0.8 66.6 58.79 0.5 114.57 1.36"/><g id="Layer_3" data-name="Layer 3"><path d="M66,30.4H64.34V25.72L63.6,30.4H62.53l-.78-4.68V30.4H60.32v-10h2l.79,5.89.94-5.89h2Z"/><path d="M72,28.32a2,2,0,0,1-2.14,2.21,2,2,0,0,1-2.18-2.21V22.43a2,2,0,0,1,2.18-2.21A2,2,0,0,1,72,22.43Zm-1.72-6.23c0-.39-.22-.55-.43-.55s-.44.16-.44.55v6.55c0,.38.17.55.45.55s.42-.16.42-.54Z"/><path d="M79.39,30.4H77.73V25.72L77,30.4H75.92l-.78-4.68V30.4H73.71v-10h2l.79,5.89.94-5.89h2Z"/><path d="M64.65,43.88c0,1.58-.81,2.09-2.17,2.09H60.32V36h2.12c1.44,0,2.21.54,2.21,2.26Zm-1.73-5.81c0-.58-.17-.71-.53-.71h-.34v7.23h.31c.42,0,.56-.17.56-.63Z"/><path d="M70.52,46H68.78l-.13-1.39h-1L67.5,46H66.05l1.29-10H69.2Zm-2-2.78-.31-4-.4,4Z"/><path d="M76.37,43.88c0,1.58-.8,2.09-2.17,2.09H72.05V36h2.11c1.45,0,2.21.54,2.21,2.26Zm-1.72-5.81c0-.58-.17-.71-.54-.71h-.34v7.23h.32c.41,0,.56-.17.56-.63Z"/><path d="M64.51,61.57H62.76l-.13-1.39h-1l-.13,1.39H60l1.29-10h1.86Zm-2.05-2.78-.31-4-.4,4Z"/><path d="M69.63,51.59l-1.22,10H66.35l-1.25-10h1.78l.55,6.52L68,51.59Z"/><path d="M74.89,61.57H73.15L73,60.18H72l-.13,1.39H70.42l1.29-10h1.86Zm-2-2.78-.31-4-.4,4Z"/><path d="M64.51,77.17H62.76l-.13-1.39h-1l-.13,1.39H60l1.29-10h1.86Zm-2.05-2.78-.31-4-.4,4Z"/><path d="M69.54,77.2H66v-10h1.73v8.59h1.78Z"/><path d="M74.67,77.17H71.16v-10h3.5v1.37H72.89v2.77h1.47v1.41H72.89v3.05h1.78Z"/><path d="M80.81,77.2H78.88l-.58-3.28-.66,3.26H76l1.45-5-1.45-5h1.81l.55,2.73L79,67.19h1.62l-1.4,4.9Z"/></g></g></g></svg>