<svg xmlns="http://www.w3.org/2000/svg" width="162px" viewBox="0 0 144.24 64.59"><defs><style>.cls-1{fill:#fff57b;stroke:#000;stroke-miterlimit:10;}</style></defs><title>Asset 38</title><g id="Layer_2" data-name="Layer 2"><g id="Layer_2-2" data-name="Layer 2"><rect class="cls-1" x="0.5" y="0.5" width="143.24" height="63.59"/><g id="Layer_3" data-name="Layer 3"><path d="M17.25,31.37c0,1.6-.83,2.29-2.09,2.29s-1.87-.82-1.87-2.26a10.27,10.27,0,0,1,.1-1.4l1.3.15a8.87,8.87,0,0,0-.09,1.11c0,.84.14,1.06.46,1.06s.44-.22.44-.83v-.27a3.63,3.63,0,0,0-1.05-2.45,4.22,4.22,0,0,1-1.19-3v-.16c0-1.3.51-2.29,2-2.29s1.86.9,1.86,2.26A8.88,8.88,0,0,1,17,26.85l-1.31-.16a5.44,5.44,0,0,0,.06-.93c0-.87-.13-1.08-.4-1.08s-.38.19-.38.78v.21a3.1,3.1,0,0,0,.83,1.93,5.91,5.91,0,0,1,1.43,3.58Z"/><path d="M23.05,31.45a2,2,0,0,1-2.13,2.21,2,2,0,0,1-2.18-2.21V25.56a2,2,0,0,1,2.18-2.21,2,2,0,0,1,2.13,2.21Zm-1.71-6.22c0-.39-.22-.55-.43-.55s-.45.16-.45.55v6.55c0,.37.17.54.46.54s.42-.15.42-.53Z"/><path d="M28.25,24.9H26.48v3H28v1.37H26.48v4.27H24.75v-10h3.5Z"/><path d="M31.57,33.53H29.84v-10h1.73Z"/><path d="M37.55,33.51H35.8l-.13-1.39h-1l-.13,1.39H33.07l1.29-10h1.86Zm-2-2.79-.32-4-.4,4Z"/><path d="M47.09,33.53H45.42V28.85l-.74,4.68H43.62l-.78-4.68v4.68H41.41v-10h2l.79,5.89.94-5.89h2Z"/><path d="M53.07,33.51H51.33l-.13-1.39h-1L50,33.51H48.6l1.28-10h1.86Zm-2-2.79-.31-4-.41,4Z"/><path d="M57.18,33.53a1.69,1.69,0,0,1-.13-.6c0-.87,0-1.19,0-1.83,0-1.49-.24-1.65-.44-1.65h-.25v4.08H54.59v-10h2.16c1.39,0,2.13.79,2.13,2.63,0,1.39-.12,2.13-1,2.56.76.48.83,1.65.83,2.29v.75a6.74,6.74,0,0,0,.17,1.78Zm-.63-8.63h-.23v3.16h.22c.39,0,.65-.31.65-1.65S56.93,24.9,56.55,24.9Z"/><path d="M64.27,24.9H62.91v8.63H61.18V24.9H59.83V23.52h4.44Z"/><path d="M67.58,33.53H65.85v-10h1.73Z"/><path d="M73.36,33.53H72.09L70.8,28.4v5.13H69.37v-10h1.46L71.93,28V23.52h1.43Z"/></g></g></g></svg>